<?xml version="1.0" encoding="UTF-8" standalone="no"?>
<!DOCTYPE svg PUBLIC "-//W3C//DTD SVG 1.1//EN" "http://www.w3.org/Graphics/SVG/1.1/DTD/svg11.dtd">
<svg width="100%" height="100%" viewBox="0 0 700 100" version="1.1" xmlns="http://www.w3.org/2000/svg" xmlns:xlink="http://www.w3.org/1999/xlink" xml:space="preserve" style="fill-rule:evenodd;clip-rule:evenodd;stroke-linejoin:round;stroke-miterlimit:1.41421;">
	<path d="M120.955,99.872c0,0 37.499,-10.987 38.286,-12.149c0.138,-0.202 -4.49,-11.384 -4.685,-12.271c-2.393,-10.881 -4.999,-22.821 -3.729,-34.52c0.998,-9.203 5.409,-20.827 10.202,-26.647c1.947,-2.364 13.447,-13.81 13.447,-13.81c0,0 -19.695,7.386 -21.141,8.468c-4.732,3.544 -152.86,-0.326 -152.86,-0.326l10.146,13.563c0,0 128.883,0.131 128.872,1.061c-0.013,1.334 -1.631,7.765 -0.738,14.955c0.203,1.638 -118.666,0.357 -118.666,0.357l8.102,13.348c0,0 108.907,-0.309 108.895,-0.281c-0.871,2.191 0.586,12.497 0.443,12.709c-0.938,1.406 -99.19,1.123 -99.19,1.123l7.481,11.13l90.784,-2.296l-15.649,25.586Z" style="fill:#e66024;stroke:#c24600;stroke-width:1px;"/>
	<path d="M578.893,99.872c0,0 -37.498,-10.987 -38.285,-12.149c-0.138,-0.202 4.489,-11.384 4.684,-12.271c2.394,-10.881 4.999,-22.821 3.73,-34.52c-0.999,-9.203 -5.409,-20.827 -10.202,-26.647c-1.947,-2.364 -13.448,-13.81 -13.448,-13.81c0,0 19.696,7.386 21.142,8.468c4.732,3.544 152.859,-0.326 152.859,-0.326l-10.145,13.563c0,0 -128.883,0.131 -128.873,1.061c0.014,1.334 1.631,7.765 0.738,14.955c-0.203,1.638 118.666,0.357 118.666,0.357l-8.101,13.348c0,0 -108.907,-0.309 -108.897,-0.281c0.872,2.191 -0.585,12.497 -0.442,12.709c0.938,1.406 99.19,1.123 99.19,1.123l-7.48,11.13l-90.785,-2.296l15.649,25.586Z" style="fill:#e66024;stroke:#c24600;stroke-width:1px;"/>
	<text x="155.866px" y="70.449px" style="font-family:'SignPainter-HouseScript', 'SignPainter';font-size:78.144px;fill:#730000;">C
		<tspan x="190.175px 225.784px 261.791px 276.379px 305.688px 341.297px 377.303px 391.892px 421.201px 450.51px 481.875px 506.277px " y="70.449px 70.449px 70.449px 70.449px 70.449px 70.449px 70.449px 70.449px 70.449px 70.449px 70.449px 70.449px ">
			OQ COQ CADET
		</tspan>
	</text>
</svg>